# xmcd
#
# Track frame offsets:
#	150
#	24336
#	48188
#	73043
#	95864
#	121207
#	144502
#	172701
#	209524
#	231230
#	255333
#	275523
#	302426
#
# Disc length: 4347 seconds
#
# Revision: 0
# Processed by: cddbd v1.5.2PL0 Copyright (c) Steve Scherf et al.
# Submitted via: dBpowerAMP V4.0
#
DISCID=ad10f90d
DTITLE=Charles Walker with Mo Indigo and the Walker Horns - Summer Lightning
DYEAR=1900
DGENRE=Blues
TTITLE0=The Walk
TTITLE1=One Man's Poison
TTITLE2=We Got A Secret
TTITLE3=Leaving This Old Town
TTITLE4=Make It Rain
TTITLE5=Snake Juice
TTITLE6=Homewrecker Legs
TTITLE7=Number By Heart
TTITLE8=Turn On Your Love Light
TTITLE9=Higher And Higher
TTITLE10=Alison
TTITLE11=At The End Of The Day
TTITLE12=Your Time To Cry
EXTD=
EXTT0=
EXTT1=
EXTT2=
EXTT3=
EXTT4=
EXTT5=
EXTT6=
EXTT7=
EXTT8=
EXTT9=
EXTT10=
EXTT11=
EXTT12=
PLAYORDER=
